<svg xmlns="http://www.w3.org/2000/svg" viewBox="0 0 72 72">
  <g style="" transform="matrix(1, 0, 0, 1, -214, -214.000031)">
    <path class="st0"
          d="M 231.14 281.76 C 226.01 279.28 222.08 275.78 219.33 271.27 C 216.59 266.76 215.21 261.57 215.21 255.69 C 215.21 247.92 216.99 240.91 220.55 234.67 C 224.11 228.43 229.13 223.52 235.59 219.92 C 242.06 216.33 249.47 214.53 257.84 214.53 C 263.98 214.53 269.4 215.58 274.11 217.67 C 278.81 219.76 282.37 222.77 284.79 226.69 L 273.32 236.1 C 269.66 230.74 264.14 228.06 256.76 228.06 C 251.73 228.06 247.29 229.24 243.43 231.59 C 239.57 233.94 236.59 237.14 234.46 241.19 C 232.34 245.24 231.27 249.75 231.27 254.71 C 231.27 260 232.95 264.2 236.32 267.3 C 239.68 270.4 244.4 271.95 250.48 271.95 C 257.73 271.95 263.81 269.3 268.71 264.01 L 278.12 273.61 C 271.32 281.52 261.66 285.47 249.11 285.47 C 242.26 285.48 236.27 284.24 231.14 281.76 Z"
          style="fill: rgb(42, 86, 163); stroke-width: 1;"></path>
  </g>
</svg>
