<?xml version="1.0" encoding="utf-8"?>
<!-- Generator: Adobe Illustrator 25.0.1, SVG Export Plug-In . SVG Version: 6.00 Build 0)  -->
<svg version="1.0" id="Слой_1" xmlns="http://www.w3.org/2000/svg" xmlns:xlink="http://www.w3.org/1999/xlink" x="0px" y="0px"
	 viewBox="0 0 700 121.94" style="enable-background:new 0 0 700 121.94;" xml:space="preserve">
<style type="text/css">
	.st0{fill:#2A56A3;}
	.st1{fill:#3BB07D;}
</style>
<g>
	<path class="st0" d="M22,88.69c-5.13-2.48-9.06-5.98-11.81-10.49c-2.74-4.51-4.12-9.7-4.12-15.58c0-7.77,1.78-14.78,5.34-21.02
		c3.56-6.24,8.58-11.15,15.04-14.75c6.47-3.59,13.88-5.39,22.25-5.39c6.14,0,11.56,1.05,16.27,3.14c4.7,2.09,8.26,5.1,10.68,9.02
		l-11.47,9.41c-3.66-5.36-9.18-8.04-16.56-8.04c-5.03,0-9.47,1.18-13.33,3.53c-3.86,2.35-6.84,5.55-8.97,9.6
		c-2.12,4.05-3.19,8.56-3.19,13.52c0,5.29,1.68,9.49,5.05,12.59c3.36,3.1,8.08,4.65,14.16,4.65c7.25,0,13.33-2.65,18.23-7.94
		l9.41,9.6c-6.8,7.91-16.46,11.86-29.01,11.86C33.12,92.41,27.13,91.17,22,88.69z"/>
	<path class="st0" d="M86.48,89.08c-4.02-1.96-7.12-4.72-9.31-8.28c-2.19-3.56-3.28-7.69-3.28-12.4c0-5.81,1.37-11.04,4.12-15.68
		c2.74-4.64,6.53-8.3,11.37-10.98c4.83-2.68,10.29-4.02,16.37-4.02c5.36,0,10.03,0.98,14.01,2.94c3.98,1.96,7.07,4.72,9.26,8.28
		c2.19,3.56,3.28,7.69,3.28,12.4c0,5.82-1.36,11.04-4.07,15.68c-2.71,4.64-6.5,8.3-11.37,10.98c-4.87,2.68-10.34,4.02-16.42,4.02
		C95.15,92.02,90.5,91.04,86.48,89.08z M109.36,77.17c2.35-1.47,4.18-3.51,5.49-6.12c1.31-2.61,1.96-5.62,1.96-9.02
		c0-3.59-1.05-6.43-3.14-8.53c-2.09-2.09-5.03-3.14-8.82-3.14c-3.01,0-5.68,0.74-8.04,2.21c-2.35,1.47-4.18,3.51-5.49,6.12
		c-1.31,2.61-1.96,5.62-1.96,9.02c0,3.59,1.06,6.44,3.19,8.53c2.12,2.09,5.08,3.14,8.87,3.14
		C104.36,79.38,107.01,78.64,109.36,77.17z"/>
	<path class="st0" d="M192.17,42.38c3.46,3.1,5.19,7.53,5.19,13.28c0,2.16-0.23,4.28-0.69,6.37l-5.88,29.2h-15.29l5.68-28.22
		c0.26-1.11,0.39-2.32,0.39-3.63c0-2.74-0.75-4.83-2.25-6.27c-1.5-1.44-3.76-2.16-6.76-2.16c-3.92,0-7.17,1.13-9.75,3.38
		c-2.58,2.25-4.33,5.63-5.24,10.14l-5.29,26.75H137l10.49-52.72h14.5l-1.18,5.68c4.7-4.31,10.49-6.47,17.35-6.47
		C184.04,37.73,188.71,39.28,192.17,42.38z"/>
	<path class="st0" d="M234.95,31.7c-1.34,1.27-2.27,3.28-2.79,6.03l-0.39,1.96h13.43l-2.35,11.76H229.8l-7.94,39.79h-15.29
		l7.94-39.79h-8.23l2.35-11.76h8.23l0.59-3.04c1.24-5.88,3.81-10.5,7.69-13.87c3.89-3.36,8.97-5.05,15.24-5.05
		c2.35,0,4.59,0.26,6.71,0.78c2.12,0.52,3.94,1.24,5.44,2.16l-5.98,10.98c-1.63-1.24-3.66-1.86-6.08-1.86
		C238.13,29.79,236.29,30.42,234.95,31.7z M257.15,18.52h15.29l-14.5,72.72h-15.29L257.15,18.52z"/>
	<path class="st0" d="M335.74,38.51l-10.49,52.72h-14.5l1.08-5.68c-2.29,2.16-4.9,3.77-7.84,4.85s-6.04,1.62-9.31,1.62
		c-5.75,0-10.34-1.57-13.77-4.7c-3.43-3.14-5.15-7.55-5.15-13.23c0-2.16,0.23-4.28,0.69-6.37l5.78-29.2h15.29l-5.59,28.22
		c-0.26,1.24-0.39,2.52-0.39,3.82c0,5.49,2.94,8.23,8.82,8.23c3.85,0,7.04-1.13,9.56-3.38c2.51-2.25,4.23-5.63,5.15-10.14
		l5.39-26.75H335.74z"/>
	<path class="st0" d="M395.81,68.99h-40.38c0.52,7.19,5.06,10.78,13.62,10.78c2.68,0,5.24-0.42,7.69-1.27
		c2.45-0.85,4.59-2.06,6.42-3.63l6.37,10.09c-2.94,2.35-6.31,4.12-10.09,5.29s-7.78,1.76-11.96,1.76c-5.42,0-10.18-0.96-14.26-2.89
		c-4.08-1.93-7.22-4.69-9.41-8.28c-2.19-3.59-3.28-7.74-3.28-12.45c0-5.81,1.32-11.06,3.97-15.73c2.65-4.67,6.32-8.33,11.02-10.98
		c4.7-2.65,10.06-3.97,16.07-3.97c5.1,0,9.52,0.95,13.28,2.84c3.76,1.9,6.66,4.61,8.72,8.13c2.06,3.53,3.09,7.61,3.09,12.25
		C396.7,63.37,396.4,66.05,395.81,68.99z M361.81,52.08c-2.48,1.93-4.25,4.59-5.29,7.99h26.17c0-3.4-1.06-6.06-3.19-7.99
		c-2.12-1.93-4.98-2.89-8.57-2.89C367.33,49.19,364.29,50.16,361.81,52.08z"/>
	<path class="st0" d="M456.18,42.38c3.46,3.1,5.19,7.53,5.19,13.28c0,2.16-0.23,4.28-0.69,6.37l-5.88,29.2h-15.29l5.68-28.22
		c0.26-1.11,0.39-2.32,0.39-3.63c0-2.74-0.75-4.83-2.25-6.27c-1.5-1.44-3.76-2.16-6.76-2.16c-3.92,0-7.17,1.13-9.75,3.38
		s-4.33,5.63-5.24,10.14l-5.29,26.75h-15.29l10.49-52.72H426l-1.18,5.68c4.7-4.31,10.49-6.47,17.35-6.47
		C448.05,37.73,452.72,39.28,456.18,42.38z"/>
	<path class="st0" d="M482.94,89.08c-4.05-1.96-7.17-4.72-9.36-8.28c-2.19-3.56-3.28-7.69-3.28-12.4c0-5.81,1.37-11.04,4.12-15.68
		c2.74-4.64,6.57-8.3,11.47-10.98c4.9-2.68,10.42-4.02,16.56-4.02c5.62,0,10.47,1.16,14.55,3.48c4.08,2.32,7.14,5.6,9.16,9.85
		l-12.94,6.47c-2.29-4.77-6.21-7.15-11.76-7.15c-3.01,0-5.7,0.74-8.08,2.21c-2.39,1.47-4.25,3.51-5.59,6.12
		c-1.34,2.61-2.01,5.59-2.01,8.92c0,3.59,1.08,6.45,3.23,8.58c2.16,2.12,5.16,3.18,9.02,3.18c5.62,0,9.93-2.35,12.94-7.06
		l11.27,7.06c-2.55,3.99-6.03,7.09-10.44,9.31c-4.41,2.22-9.29,3.33-14.65,3.33C491.72,92.02,486.99,91.04,482.94,89.08z"/>
	<path class="st0" d="M582.9,68.99h-40.38c0.52,7.19,5.06,10.78,13.62,10.78c2.68,0,5.24-0.42,7.69-1.27
		c2.45-0.85,4.59-2.06,6.42-3.63l6.37,10.09c-2.94,2.35-6.31,4.12-10.09,5.29s-7.78,1.76-11.96,1.76c-5.42,0-10.18-0.96-14.26-2.89
		c-4.08-1.93-7.22-4.69-9.41-8.28c-2.19-3.59-3.28-7.74-3.28-12.45c0-5.81,1.32-11.06,3.97-15.73c2.65-4.67,6.32-8.33,11.02-10.98
		c4.7-2.65,10.06-3.97,16.07-3.97c5.1,0,9.52,0.95,13.28,2.84c3.76,1.9,6.66,4.61,8.72,8.13c2.06,3.53,3.09,7.61,3.09,12.25
		C583.78,63.37,583.48,66.05,582.9,68.99z M548.89,52.08c-2.48,1.93-4.25,4.59-5.29,7.99h26.17c0-3.4-1.06-6.06-3.19-7.99
		c-2.12-1.93-4.98-2.89-8.57-2.89C554.41,49.19,551.37,50.16,548.89,52.08z"/>
	<path class="st1" d="M588.58,89.52c-1.7-1.67-2.55-3.77-2.55-6.32c0-3,0.98-5.45,2.94-7.35c1.96-1.89,4.38-2.84,7.25-2.84
		c2.61,0,4.75,0.82,6.42,2.45c1.67,1.63,2.5,3.76,2.5,6.37c0,2.94-1,5.38-2.99,7.3c-1.99,1.93-4.36,2.89-7.1,2.89
		C592.43,92.02,590.28,91.18,588.58,89.52z"/>
	<path class="st1" d="M595.24,108.09l6.08-11.07c1.76,1.24,3.89,1.86,6.37,1.86c2.09,0,3.74-0.62,4.95-1.86
		c1.21-1.24,2.07-3.2,2.6-5.88l10.58-52.63h15.29l-10.49,52.23c-2.68,13.52-10.26,20.29-22.74,20.29
		C602.79,111.03,598.57,110.05,595.24,108.09z M629.59,28.86c-1.67-1.53-2.5-3.41-2.5-5.64c0-2.61,0.93-4.79,2.79-6.52
		c1.86-1.73,4.29-2.6,7.3-2.6c2.68,0,4.85,0.73,6.52,2.21c1.67,1.47,2.5,3.28,2.5,5.44c0,2.81-0.95,5.08-2.84,6.81
		c-1.9,1.73-4.35,2.6-7.35,2.6C633.4,31.16,631.26,30.39,629.59,28.86z"/>
	<path class="st1" d="M650.95,90.5c-4.08-1.01-7.27-2.33-9.55-3.97l5.88-11.07c2.29,1.5,5.08,2.71,8.38,3.63
		c3.3,0.92,6.62,1.37,9.95,1.37c3.46,0,6.04-0.44,7.74-1.32c1.7-0.88,2.55-2.14,2.55-3.77c0-1.31-0.75-2.25-2.25-2.84
		c-1.5-0.59-3.92-1.21-7.25-1.86c-3.79-0.72-6.91-1.5-9.36-2.35c-2.45-0.85-4.57-2.24-6.37-4.17c-1.8-1.93-2.7-4.56-2.7-7.89
		c0-5.81,2.43-10.35,7.3-13.62c4.87-3.27,11.25-4.9,19.16-4.9c3.66,0,7.22,0.39,10.68,1.18c3.46,0.78,6.4,1.86,8.82,3.23
		l-5.49,11.17c-4.31-2.68-9.51-4.02-15.58-4.02c-3.33,0-5.87,0.49-7.6,1.47c-1.73,0.98-2.6,2.22-2.6,3.72
		c0,1.37,0.75,2.37,2.25,2.99c1.5,0.62,4.02,1.29,7.55,2.01c3.72,0.72,6.78,1.49,9.16,2.3c2.38,0.82,4.46,2.17,6.22,4.07
		c1.76,1.9,2.65,4.48,2.65,7.74c0,5.88-2.47,10.42-7.4,13.62c-4.93,3.2-11.32,4.8-19.16,4.8C659.37,92.02,655.04,91.51,650.95,90.5z
		"/>
</g>
</svg>
